<svg xmlns="http://www.w3.org/2000/svg" width="900" height="420"><style>text{font:14px sans-serif}</style><text x="10" y="20">Overhead por algoritmo y tamaño de mensaje</text><text x="10" y="412">Fuente: results/raw_results.csv; overhead = bits de redundancia / bits de carga, promedio por tamaño</text><text x="10" y="50">crc32 n=16</text><rect x="260" y="35" width="232" height="20" fill="#2674b8"/><text x="850" y="50">25.0%</text><text x="10" y="85">crc32 n=64</text><rect x="260" y="70" width="58" height="20" fill="#2674b8"/><text x="850" y="85">6.2%</text><text x="10" y="120">crc32 n=256</text><rect x="260" y="105" width="14" height="20" fill="#2674b8"/><text x="850" y="120">1.6%</text><text x="10" y="155">crc32 n=1024</text><rect x="260" y="140" width="3" height="20" fill="#2674b8"/><text x="850" y="155">0.4%</text><text x="10" y="190">crc32 n=4096</text><rect x="260" y="175" width="0" height="20" fill="#2674b8"/><text x="850" y="190">0.1%</text><text x="10" y="225">secded n=16</text><rect x="260" y="210" width="580" height="20" fill="#2674b8"/><text x="850" y="225">62.5%</text><text x="10" y="260">secded n=64</text><rect x="260" y="245" width="580" height="20" fill="#2674b8"/><text x="850" y="260">62.5%</text><text x="10" y="295">secded n=256</text><rect x="260" y="280" width="580" height="20" fill="#2674b8"/><text x="850" y="295">62.5%</text><text x="10" y="330">secded n=1024</text><rect x="260" y="315" width="580" height="20" fill="#2674b8"/><text x="850" y="330">62.5%</text><text x="10" y="365">secded n=4096</text><rect x="260" y="350" width="580" height="20" fill="#2674b8"/><text x="850" y="365">62.5%</text></svg>